<svg xmlns="http://www.w3.org/2000/svg" viewBox="0 0 64 64" width="128" height="128">
  <defs>
    <linearGradient id="bgGrad" x1="0%" y1="0%" x2="100%" y2="100%">
      <stop offset="0%" style="stop-color:#3b82f6"/>
      <stop offset="100%" style="stop-color:#1e40af"/>
    </linearGradient>
  </defs>
  
  <!-- 蓝色渐变圆形背景 -->
  <circle cx="32" cy="32" r="32" fill="url(#bgGrad)"/>
  
  <!-- 左耳朵 - 缩小比例 -->
  <ellipse cx="18" cy="14" rx="6" ry="9" fill="#d97706" transform="rotate(-10 18 14)"/>
  <ellipse cx="19" cy="15" rx="4" ry="6" fill="#fef3c7" transform="rotate(-10 19 15)"/>
  
  <!-- 右耳朵 - 缩小比例 -->
  <ellipse cx="46" cy="14" rx="6" ry="9" fill="#d97706" transform="rotate(10 46 14)"/>
  <ellipse cx="45" cy="15" rx="4" ry="6" fill="#fef3c7" transform="rotate(10 45 15)"/>
  
  <!-- 脸部 - 奶油白 -->
  <ellipse cx="32" cy="38" rx="22" ry="20" fill="#fffbeb"/>
  
  <!-- 额头橙色毛发 -->
  <ellipse cx="32" cy="26" rx="18" ry="10" fill="#f59e0b"/>
  
  <!-- 脸部白色区域 -->
  <ellipse cx="32" cy="40" rx="16" ry="14" fill="#fffbeb"/>
  
  <!-- 左眼睛 - 睁开 -->
  <circle cx="24" cy="36" r="5" fill="#1f2937"/>
  <circle cx="26" cy="34" r="2" fill="#fff"/>
  <circle cx="23" cy="38" r="0.8" fill="#fff"/>
  
  <!-- 右眼睛 - 闭着（眨眼） -->
  <path d="M37 36 Q42 40 47 36" stroke="#1f2937" stroke-width="3" fill="none" stroke-linecap="round"/>
  
  <!-- 鼻子 -->
  <ellipse cx="32" cy="46" rx="5" ry="4" fill="#1f2937"/>
  <ellipse cx="30" cy="45" rx="1.5" ry="1" fill="#6b7280"/>
  
  <!-- 嘴巴 -->
  <path d="M28 50 Q32 54 36 50" stroke="#78350f" stroke-width="2" fill="none"/>
  
  <!-- 舌头 -->
  <ellipse cx="32" cy="53" rx="4" ry="3" fill="#f87171"/>
  
  <!-- 腮红 -->
  <ellipse cx="16" cy="42" rx="4" ry="2.5" fill="#fb7185" opacity="0.6"/>
  <ellipse cx="48" cy="42" rx="4" ry="2.5" fill="#fb7185" opacity="0.6"/>
</svg>