<svg xmlns="http://www.w3.org/2000/svg" viewBox="0 0 64 64" width="128" height="128">
  <defs>
    <linearGradient id="bgGrad" x1="0%" y1="0%" x2="100%" y2="100%">
      <stop offset="0%" style="stop-color:#3b82f6"/>
      <stop offset="100%" style="stop-color:#1e40af"/>
    </linearGradient>
  </defs>
  
  <!-- 蓝色渐变圆形背景 -->
  <circle cx="32" cy="32" r="32" fill="url(#bgGrad)"/>
  
  <!-- 左耳朵 - 更小的比例 -->
  <ellipse cx="20" cy="16" rx="5" ry="7" fill="#d97706" transform="rotate(-8 20 16)"/>
  <ellipse cx="21" cy="17" rx="3" ry="5" fill="#fef3c7" transform="rotate(-8 21 17)"/>
  
  <!-- 右耳朵 - 更小的比例 -->
  <ellipse cx="44" cy="16" rx="5" ry="7" fill="#d97706" transform="rotate(8 44 16)"/>
  <ellipse cx="43" cy="17" rx="3" ry="5" fill="#fef3c7" transform="rotate(8 43 17)"/>
  
  <!-- 脸部 - 奶油白，更大更圆 -->
  <ellipse cx="32" cy="38" rx="24" ry="22" fill="#fffbeb"/>
  
  <!-- 额头橙色毛发 -->
  <ellipse cx="32" cy="26" rx="20" ry="12" fill="#f59e0b"/>
  
  <!-- 脸部白色区域 -->
  <ellipse cx="32" cy="40" rx="18" ry="16" fill="#fffbeb"/>
  
  <!-- 左眼睛 - 睁开，大而可爱 -->
  <circle cx="24" cy="36" r="6" fill="#1f2937"/>
  <circle cx="26" cy="34" r="2.5" fill="#fff"/>
  <circle cx="22" cy="38" r="1" fill="#fff"/>
  
  <!-- 右眼睛 - 闭着（眨眼） -->
  <path d="M36 36 Q42 41 48 36" stroke="#1f2937" stroke-width="3.5" fill="none" stroke-linecap="round"/>
  
  <!-- 鼻子 -->
  <ellipse cx="32" cy="47" rx="5" ry="4" fill="#1f2937"/>
  <ellipse cx="30" cy="46" rx="1.5" ry="1" fill="#6b7280"/>
  
  <!-- 嘴巴 -->
  <path d="M28 51 Q32 55 36 51" stroke="#78350f" stroke-width="2" fill="none"/>
  
  <!-- 舌头 -->
  <ellipse cx="32" cy="54" rx="4" ry="3" fill="#f87171"/>
  
  <!-- 腮红 -->
  <ellipse cx="15" cy="42" rx="4" ry="2.5" fill="#fb7185" opacity="0.7"/>
  <ellipse cx="49" cy="42" rx="4" ry="2.5" fill="#fb7185" opacity="0.7"/>
</svg>